Patient4_TMGait_0pt7_02_right_47_EMG.mot
version=1
nRows=36
nColumns=33
inDegrees=no
endheader
time	1LAddLong	2LGlutMax	3LGlutMed	4LIliopsoas	5LSemiMemb	6LBicFemLong	7LRecFem	8LVastMed	9LVastLat	10LGasMed	11LTibAnt	12lTibPost	13LPeroneusLong	14LSol	15LExtDigLong	16LFlexDigLong	17RAddLong	18RGlutMax	19RGlutMed	20RIliopsoas	21RSemiMemb	22RBicFemLong	23RRecFem	24RVastMed	25RVastLat	26RGasMed	27RTibAnt	28RTibPost	29RPeroneusLong	30RSol	31RExtDigLong	32RFlexDigLong
54.015	0.048828	0.15854	0.028534	0.010071	0.015564	-0.18204	0.050659	-0.050507	-0.072784	-0.018463	0.001831	-0.016785	0.047455	-0.036316	-0.010986	0.006256	-0.016174	0.35141	-0.26443	0.36377	-0.061035	-0.018158	-0.6424	0.10162	-0.016327	-0.012512	0.13748	0.002899	-0.34164	0.064545	-0.003052	-0.017395
54.016	0.060425	0.18814	0.046539	0.005188	0.001984	-0.079803	0.1001	-0.043793	-0.050812	-0.002136	0.009308	0.000916	0.033875	-0.040588	-0.007629	0.010681	-0.001221	0.38528	0.02182	0.28503	-0.059967	-0.022736	-0.62912	0.046387	-0.023041	-0.000916	0.10574	0.001373	-0.55908	0.006714	-0.005798	-0.013733
54.017	0.048065	0.22781	-0.1149	0.02182	-0.018463	0.045624	0.0737	-0.039368	-0.15259	0.00061	0.007477	0.010529	0.027466	-0.000153	-0.008392	0.018463	0.002441	0.4155	0.42038	0.11414	-0.054626	-0.00351	-0.634	0.074768	-0.031433	-0.000916	0.092316	0.000916	-0.32272	0.029297	-0.002594	-0.007172
54.018	0.040894	0.24735	-0.23956	0.024719	-0.017395	0.11337	0.06134	-0.050964	-0.38544	0.007782	0.012512	-0.005798	0.012512	0.056915	-0.005493	0.009308	0.000153	0.37674	-0.13306	0.058136	-0.047607	-0.014496	-0.62393	0.044861	-0.039063	-0.011597	0.09201	0.006561	-0.010071	0.071869	0.001221	-0.010834
54.019	0.031433	0.30685	-0.19852	-0.002899	-0.01236	0.21332	0.033417	-0.045929	-0.31189	0.014496	0.052948	0.010681	-0.00473	0.11887	0.00946	0.00351	-0.012817	0.40115	-0.33646	-0.037842	-0.035858	-0.022736	-0.62302	0.046234	-0.054626	0.001831	0.13565	-0.000458	-0.10391	0.018158	-0.001678	-0.003967
54.02	0.014496	0.35797	-0.093231	-0.005646	0.004425	0.23758	0.028229	-0.024567	-0.10773	0.01297	0.047913	-0.018311	-0.010223	0.024872	0.011749	0.010223	-0.008087	0.40085	-0.36743	-0.20721	-0.02121	-0.027924	-0.57449	0.02121	-0.052643	0.001221	0.18387	0.001984	-0.327	-0.070801	-0.006561	-0.00061
54.021	0.010834	0.40039	0.081635	-0.002289	-0.010986	0.26169	0.049286	-0.015717	-0.16449	0.009918	-0.043488	0.006256	0.003967	-0.067444	0.014038	0.007324	0.000916	0.35507	-0.34073	-0.41748	0.000763	-0.050659	-0.55756	0.045776	-0.062256	0	0.14603	0.003357	-0.3183	-0.063019	-0.001526	-0.004578
54.022	-0.004425	0.43716	0.13016	0.006409	-0.05188	0.27496	0.10742	-0.005035	-0.34225	-0.011444	-0.13107	-0.000916	0.072174	-0.10269	-0.019531	0.005951	0.002136	0.25635	-0.090027	-0.16586	0.019531	-0.019989	-0.52155	0.069733	-0.036774	-0.007782	0.11368	0.000458	-0.24368	0.001526	-0.000916	-0.009155
54.023	0.003967	0.53879	0.11078	0.043488	-0.032349	0.13153	0.1944	0.003204	-0.44846	-0.011444	-0.11246	0.000153	0.10605	-0.064392	0.027618	0.001984	0.024414	0.28351	0.001221	-0.059814	0.031738	-0.024872	-0.55542	0.021362	-0.045624	-0.009613	0.091705	0.002136	-0.10254	0.036774	-0.001526	-0.007477
54.024	0.019226	0.54947	0.12161	0.009003	0.088501	-0.019836	0.053406	-0.000458	-0.38773	-0.011139	-0.028076	-0.00473	0.037384	-0.088348	0.046997	0.000153	0.024109	0.2562	0.17716	-0.084381	0.046387	-0.0177	-0.53543	0.03067	-0.05127	-0.001984	0.057526	0.006561	-0.11551	0.036469	0.000916	-0.005341
54.025	0.05127	0.62759	0.076294	0.003204	0.11108	-0.1091	-0.052185	-0.007172	-0.12268	-0.023651	0.063934	-0.000458	0.10162	0.005646	0.00946	0.009918	0.029602	0.31921	-0.14923	-0.026855	0.041809	-0.024872	-0.54932	0.037842	-0.057831	0.006409	0.037689	0.000763	-0.19272	-0.019379	-0.001678	-0.007477
54.026	0.067444	0.74844	0.044098	-0.001526	0.14175	-0.14572	-0.07019	-0.005188	0.11215	-0.03891	0.13168	0.007477	0.10681	0.047302	0.060272	0.00946	0.033569	0.34836	0.11597	0.028839	0.062866	-0.010223	-0.51926	0.056305	-0.08316	0.001068	0.061035	0.003815	-0.39063	-0.082855	-0.001373	-0.00946
54.027	0.057831	0.8139	0.056915	0.005188	0.18875	-0.20889	0.036011	-0.019073	0.26977	-0.04364	0.04303	-0.001526	0.061951	0.03479	0.037689	0.004578	0.005341	0.25284	0.14145	0.08667	0.075836	-0.011597	-0.51437	0.027313	-0.064697	-0.000763	0.048523	0.000153	-0.34714	-0.11719	0.00061	-0.012207
54.028	0.049286	0.74829	0.017853	0.00946	0.13016	-0.20126	0.12283	-0.020599	0.30884	-0.023041	-0.1297	0.002289	0.034943	0.029297	-0.20371	0.00473	-0.021057	0.15701	0.007324	0.014343	0.073242	-0.000305	-0.54962	0.045319	-0.068817	-0.002289	0.007019	0.000458	-0.15869	-0.19745	0.001221	-0.010223
54.029	0.023346	0.71045	0.040588	0.00412	0.062866	-0.092468	0.18753	-0.035248	0.35919	-0.007172	-0.063934	0.002594	0.021057	0.000916	0.18143	0.001526	-0.020447	0.076447	-0.12161	-0.009766	0.085449	-0.019989	-0.53421	0.026245	-0.066223	0.001984	0.000916	0.000305	-0.083466	0.055542	-0.000916	-0.00885
54.03	-0.001678	0.68085	0.004272	0.005035	-0.041809	0.09079	0.063629	-0.04837	0.31113	-0.019226	0.044098	0.002441	0.002899	-0.014648	0.28366	-0.005646	-0.019226	0.020294	-0.34225	-0.004272	0.10529	0.010376	-0.57327	0.013275	-0.05722	0.000305	0.00824	0.000763	0.021057	0.215	0.000153	-0.013733
54.031	-0.010071	0.62912	-0.012054	0.011902	-0.16983	0.20493	-0.046387	-0.022125	0.12512	-0.01358	0.068054	0.000305	0.029907	0.013428	-0.14267	0.005646	-0.001373	0.072784	-0.44815	0.003052	0.12833	-0.001068	-0.61981	0.044708	-0.043335	0.003357	0.030975	0.005798	0.13077	0.17029	0.002747	-0.013733
54.032	-0.022888	0.62897	-0.012054	0.01709	-0.21835	0.2504	0.005035	-0.006409	-0.085449	-0.004272	0.045471	0.007324	0.050354	-0.008087	-0.10117	-0.001221	0.013428	0.057373	-0.39795	0.011902	0.14404	0.004883	-0.58014	0.054779	-0.034485	-0.00885	0.023041	0.003815	0.22553	0.012665	-0.005798	-0.007172
54.033	-0.047302	0.63156	-0.008087	0.016022	-0.20386	0.21393	0.055695	0.006866	-0.24933	-0.006409	0.066528	-0.003967	0.042114	-0.006561	-0.18814	-0.004425	0.017242	-0.004272	-0.22736	-0.091553	0.1413	-0.002899	-0.62332	-0.011902	-0.036469	-0.02594	0.018005	0.004883	0.1796	-0.20004	-0.002594	-0.01709
54.034	-0.030823	0.68756	-0.0177	0.006104	-0.16495	0.036774	0.069275	0.028534	-0.12207	-0.002441	-0.041809	0.005798	0.069885	0.006409	-0.23651	-0.003357	0.015717	0.071869	-0.33905	-0.082245	0.14404	-0.000916	-0.58579	0.02533	-0.034637	-0.030518	0.022278	-0.000916	0.22079	-0.16083	0.005798	-0.013733
54.035	-0.006866	0.72815	-0.019073	0.012054	0.011902	-0.060577	0.025787	0.045929	-0.11566	-0.006409	-0.051727	-0.001831	0.076599	-0.048828	-0.17716	0.001221	0.004425	0.088959	-0.44006	-0.072021	0.16861	0.001373	-0.58655	0.066071	-0.025787	-0.030518	0.070953	-0.000305	0.20645	-0.074768	-0.003357	-0.005493
54.036	0.028687	0.75897	0.014191	0.005646	0.24582	-0.15717	-0.050049	0.035553	-0.044098	-0.002747	-0.070343	0.003967	0.070801	-0.069733	0.013275	0.001068	0.006256	-0.061188	-0.30365	-0.057373	0.1973	0.00473	-0.58579	0.085449	-0.02655	-0.029602	0.084381	0.000305	0.28763	-0.024567	-0.000305	-0.018158
54.037	0.027924	0.746	0.012207	-0.015564	0.19852	-0.037537	-0.10712	0.016937	0.063324	-0.001068	-0.073242	0.027924	0.07019	-0.071869	0.39627	-0.013885	-0.006104	0.019989	-0.025635	0.00061	0.19363	-0.010681	-0.61874	0.048218	-0.038605	-0.023193	0.12589	0.001526	0.13763	-0.002136	-0.006104	-0.009918
54.038	0.004883	0.62958	-0.012665	0.011292	0.10986	0.088654	-0.18265	-0.016022	0.15335	0	-0.068207	-0.015564	0.049286	-0.062103	-0.06012	0.003815	-0.033722	0.018768	-0.25635	0.025482	0.19928	-0.001526	-0.55924	0.057983	-0.05127	-0.009766	0.17105	-0.000458	-0.1709	-0.022583	0.000305	-0.006866
54.039	-0.00824	0.60318	-0.018921	0.014496	0.043335	0.23331	-0.18173	-0.027008	0.25024	-0.004272	-0.075226	0.008545	0.047607	-0.066986	-0.031128	-0.000916	-0.013885	0.006256	-0.27786	0.068665	0.20172	-0.021057	-0.61722	0.045471	-0.029144	-0.012665	0.11017	0.003662	-0.037079	-0.030823	-0.003967	-0.014648
54.04	-0.020905	0.62759	-0.043945	-0.00473	-0.028992	0.14435	-0.096283	-0.030975	0.091095	-0.003204	-0.067749	-0.006866	0.045471	-0.039215	-0.1413	-0.010681	-0.00885	-0.014191	-0.068207	0.044403	0.19653	-0.000916	-0.58868	0.033569	-0.035553	-0.010681	0.12604	0.000305	0.22553	-0.027771	-0.003815	-0.017548
54.041	-0.026398	0.62958	-0.075226	0.006409	-0.079193	0.00946	-0.007324	-0.016785	-0.19333	0.014496	-0.030212	0.004578	0.046234	0.01358	-0.015259	0.002289	0.012054	-0.054169	-0.17593	-0.001373	0.19791	-0.016022	-0.54825	0.021667	-0.044708	-0.001221	0.087585	0.002594	0.15366	0.002899	-0.010376	-0.016174
54.042	-0.010834	0.68054	-0.11841	0.014648	-0.018616	0.13611	-0.035095	-0.002289	-0.3038	-0.001068	-0.020447	-0.002441	0.032959	0.014801	0.052185	0.007782	0.032043	-0.055237	0.068359	0.00885	0.20432	-0.009918	-0.55435	0.020447	-0.042725	0.003815	0.021057	0.004578	-0.30167	0.008087	-0.004578	-0.017242
54.043	0.019226	0.74493	-0.037231	0.007324	0.093689	0.21713	-0.059204	-0.012665	-0.071869	0.008087	-0.009613	0.016479	0.020294	-0.024414	0.019531	0.007477	0.033417	0.031586	-0.16342	0.015106	0.21469	-0.013733	-0.55756	0.008698	-0.03006	-0.00061	-0.058899	0.016022	-0.20233	0.027771	-0.002594	-0.016327
54.044	0.019531	0.70602	0.023499	0.010986	0.055695	0.30395	-0.013275	-0.006866	0.000305	0.009918	-0.003967	0.009155	0.017853	-0.047302	0.008698	0.011292	0.01358	0.013428	-0.26581	0.054016	0.22018	-0.015106	-0.551	-0.001678	-0.038757	-0.002136	-0.051117	0.0177	0.023804	-0.028381	-0.002441	-0.018005
54.045	0.016632	0.62897	-0.039673	0.010834	0.060883	0.27573	-0.006561	-0.00885	0.062714	0.010376	-0.019226	0.009613	0.011139	-0.044098	0.026703	0.011597	0.013123	-0.029602	-0.079346	0.14145	0.22171	-0.018158	-0.5658	0.050049	-0.024872	-0.010529	-0.003967	0.023041	0.18951	-0.32669	0.000305	-0.02533
54.046	0.009003	0.61844	-0.068359	0.014954	0.015564	0.3157	0.041809	-0.014801	0.095825	0.015411	-0.031891	-0.001068	0.02594	0.03006	0.094299	0.012207	0.011597	0.001373	-0.078278	0.13168	0.22095	-0.00946	-0.56305	0.063019	-0.029602	-0.008545	0.01297	-0.032501	0.047302	-0.38574	0.000153	-0.020142
54.047	-0.016327	0.5722	-0.082703	0.005798	-0.026093	0.42267	0.22201	-0.011292	0.077057	0.024719	-0.05127	0.004425	0.022278	0.036316	0.059814	-0.028381	-0.00473	-0.017548	-0.41336	0.084991	0.23895	0.029297	-0.56885	0.008087	-0.030365	-0.007019	0.045471	-0.078888	-0.6575	0.026398	0.000153	-0.023346
54.048	-0.024872	0.55389	-0.055389	0.000458	-0.09613	0.3566	0.18997	-0.007782	0.083466	0.019684	-0.006714	0.00412	0.027161	0.0354	-0.000916	-0.94162	-0.015259	-0.099945	-0.18478	0.064545	0.21927	0.016479	-0.57465	0.006104	-0.019531	-0.005035	-0.008087	0.049896	-0.83908	0.33493	-0.003662	-0.016632
54.049	-0.006409	0.54855	0.052795	-0.010529	-0.13534	-0.001373	0.077362	-0.005035	0.12772	0.009155	0.072937	-0.001526	0.071716	0.031281	0.22339	0.066986	-0.043335	-0.12528	0.020752	-0.005493	0.20035	0.001831	-0.54489	0.032654	-0.007172	0.003815	0.00946	0.029602	-0.46417	0.15915	-0.000305	-0.011749
54.05	0.015411	0.54825	0.000153	0.014496	0.020447	-0.037231	-0.005035	-0.008545	0.15915	0.009766	0.29343	0.01709	0.009308	0.04776	0.028839	0.74844	-0.056458	-0.098877	0.039063	0.014038	0.19943	-0.016174	-0.5098	-0.034332	-0.010071	0.011444	0.001221	0.010071	0.070953	0.043793	-0.001373	-0.005035
